<svg width="198" height="198" viewBox="0 0 198 198" fill="none" xmlns="http://www.w3.org/2000/svg">
<rect x="0.72052" y="0.410156" width="197.101" height="197.101" fill="black"/>
<path fill-rule="evenodd" clip-rule="evenodd" d="M99.2708 178.46C143.177 178.46 178.771 142.867 178.771 98.9604C178.771 55.0538 143.177 19.4604 99.2708 19.4604C55.3641 19.4604 19.7708 55.0538 19.7708 98.9604C19.7708 142.867 55.3641 178.46 99.2708 178.46ZM99.2708 165.46C135.998 165.46 165.771 135.687 165.771 98.9604C165.771 62.2335 135.998 32.4604 99.2708 32.4604C62.5438 32.4604 32.7708 62.2335 32.7708 98.9604C32.7708 135.687 62.5438 165.46 99.2708 165.46Z" fill="#FF007A"/>
<path d="M84.7308 137.916L39.9468 108.252V98.7484L84.7308 69.3724V83.6284L53.7708 103.644L84.7308 123.66V137.916Z" fill="#FF007A"/>
<path d="M69.3708 149.46L68.9388 147.588L116.315 49.8124H129.707L129.563 51.9724L82.3308 149.46H69.3708Z" fill="#FF007A"/>
<path d="M109.419 133.916V119.66L140.523 99.6444L109.419 79.6284V65.3724L154.347 94.7484V104.252L109.419 133.916Z" fill="#FF007A"/>
</svg>
