<svg width="150" height="144" viewBox="0 0 150 144" fill="none" xmlns="http://www.w3.org/2000/svg">
<path d="M32.3044 44.6348C29.0115 44.6308 25.8545 43.321 23.5261 40.9925C21.1976 38.664 19.8877 35.5071 19.8838 32.2141C19.8838 31.5553 19.6221 30.9234 19.1562 30.4576C18.6903 29.9917 18.0585 29.73 17.3997 29.73C16.7408 29.73 16.109 29.9917 15.6431 30.4576C15.1772 30.9234 14.9155 31.5553 14.9155 32.2141C14.9116 35.5071 13.6017 38.664 11.2732 40.9925C8.94477 43.321 5.78782 44.6308 2.49487 44.6348C1.83604 44.6348 1.20419 44.8965 0.738327 45.3624C0.272462 45.8282 0.0107422 46.4601 0.0107422 47.1189C0.0107422 47.7777 0.272462 48.4096 0.738327 48.8755C1.20419 49.3413 1.83604 49.603 2.49487 49.603C5.78782 49.607 8.94477 50.9169 11.2732 53.2453C13.6017 55.5738 14.9116 58.7307 14.9155 62.0237C14.9155 62.6825 15.1772 63.3144 15.6431 63.7802C16.109 64.2461 16.7408 64.5078 17.3997 64.5078C18.0585 64.5078 18.6903 64.2461 19.1562 63.7802C19.6221 63.3144 19.8838 62.6825 19.8838 62.0237C19.8877 58.7307 21.1976 55.5738 23.5261 53.2453C25.8545 50.9169 29.0115 49.607 32.3044 49.603C32.9633 49.603 33.5951 49.3413 34.061 48.8755C34.5269 48.4096 34.7886 47.7777 34.7886 47.1189C34.7886 46.4601 34.5269 45.8282 34.061 45.3624C33.5951 44.8965 32.9633 44.6348 32.3044 44.6348Z" fill="#ED1E7A"/>
<path d="M146.574 44.6348C143.282 44.6308 140.125 43.321 137.796 40.9925C135.468 38.664 134.158 35.5071 134.154 32.2141C134.154 31.5553 133.892 30.9234 133.426 30.4576C132.96 29.9917 132.329 29.73 131.67 29.73C131.011 29.73 130.379 29.9917 129.913 30.4576C129.447 30.9234 129.186 31.5553 129.186 32.2141C129.182 35.5071 127.872 38.664 125.543 40.9925C123.215 43.321 120.058 44.6308 116.765 44.6348C116.106 44.6348 115.474 44.8965 115.008 45.3624C114.542 45.8282 114.281 46.4601 114.281 47.1189C114.281 47.7777 114.542 48.4096 115.008 48.8755C115.474 49.3413 116.106 49.603 116.765 49.603C120.058 49.607 123.215 50.9169 125.543 53.2453C127.872 55.5738 129.182 58.7307 129.186 62.0237C129.186 62.6825 129.447 63.3144 129.913 63.7802C130.379 64.2461 131.011 64.5078 131.67 64.5078C132.329 64.5078 132.96 64.2461 133.426 63.7802C133.892 63.3144 134.154 62.6825 134.154 62.0237C134.158 58.7307 135.468 55.5738 137.796 53.2453C140.125 50.9169 143.282 49.607 146.574 49.603C147.233 49.603 147.865 49.3413 148.331 48.8755C148.797 48.4096 149.059 47.7777 149.059 47.1189C149.059 46.4601 148.797 45.8282 148.331 45.3624C147.865 44.8965 147.233 44.6348 146.574 44.6348Z" fill="#ED1E7A"/>
<path d="M91.8541 12.2368L81.4208 10.719L76.7705 1.27429C76.5427 0.886328 76.2175 0.564637 75.8271 0.341114C75.4367 0.117592 74.9946 0 74.5447 0C74.0948 0 73.6528 0.117592 73.2623 0.341114C72.8719 0.564637 72.5467 0.886328 72.3189 1.27429L67.6537 10.714L57.2204 12.2318C56.7621 12.2988 56.3316 12.4925 55.9776 12.7912C55.6236 13.0899 55.3602 13.4817 55.217 13.9222C55.0739 14.3627 55.0568 14.8344 55.1676 15.2841C55.2784 15.7339 55.5128 16.1437 55.8442 16.4672L63.391 23.8252L61.6098 34.2089C61.5319 34.6654 61.5831 35.1346 61.7577 35.5635C61.9323 35.9925 62.2233 36.3641 62.5979 36.6364C62.9725 36.9086 63.4158 37.0708 63.8777 37.1045C64.3395 37.1382 64.8017 37.0422 65.2118 36.8272L74.5348 31.9334L83.8627 36.8346C84.2729 37.0496 84.735 37.1457 85.1968 37.112C85.6587 37.0783 86.102 36.9161 86.4766 36.6438C86.8512 36.3715 87.1422 35.9999 87.3168 35.571C87.4914 35.1421 87.5426 34.6729 87.4647 34.2164L85.6835 23.8327L93.2303 16.4747C93.5581 16.1506 93.7893 15.7418 93.898 15.2939C94.0067 14.8459 93.9886 14.3766 93.8458 13.9384C93.703 13.5001 93.4411 13.1103 93.0893 12.8124C92.7376 12.5145 92.3099 12.3204 91.8541 12.2517V12.2368Z" fill="#ED1E7A"/>
<path d="M144.622 109.861C144.479 109.419 144.215 109.027 143.86 108.728C143.505 108.429 143.074 108.235 142.615 108.169L133.091 106.783L128.83 98.1554C128.625 97.74 128.308 97.3904 127.914 97.1459C127.521 96.9014 127.067 96.7719 126.603 96.7719C126.14 96.7719 125.686 96.9014 125.292 97.1459C124.899 97.3904 124.582 97.74 124.376 98.1554L120.116 106.783L110.592 108.169C110.136 108.237 109.708 108.431 109.356 108.729C109.004 109.027 108.742 109.416 108.598 109.855C108.455 110.293 108.437 110.762 108.546 111.211C108.654 111.659 108.885 112.068 109.213 112.392L116.107 119.126L114.48 128.613C114.418 128.97 114.436 129.335 114.531 129.684C114.625 130.033 114.795 130.357 115.028 130.634C115.261 130.91 115.552 131.133 115.88 131.285C116.208 131.438 116.565 131.517 116.926 131.517C117.329 131.518 117.726 131.42 118.082 131.232L126.605 126.76L135.125 131.232C135.535 131.447 135.997 131.543 136.459 131.509C136.921 131.475 137.364 131.313 137.739 131.041C138.114 130.768 138.405 130.397 138.579 129.968C138.754 129.539 138.805 129.07 138.727 128.613L137.1 119.126L143.994 112.407C144.325 112.083 144.56 111.673 144.671 111.223C144.782 110.773 144.765 110.301 144.622 109.861Z" fill="#ED1E7A"/>
<path d="M38.3808 105.685L28.8542 104.299L24.6038 95.6713C24.376 95.2833 24.0508 94.9616 23.6604 94.7381C23.27 94.5146 22.8279 94.397 22.378 94.397C21.9281 94.397 21.4861 94.5146 21.0957 94.7381C20.7052 94.9616 20.38 95.2833 20.1522 95.6713L15.882 104.299L6.35539 105.685C5.89708 105.752 5.46662 105.946 5.11262 106.244C4.75863 106.543 4.49519 106.935 4.35206 107.375C4.20892 107.816 4.1918 108.287 4.30261 108.737C4.41343 109.187 4.64777 109.597 4.97918 109.92L11.8702 116.642L10.2455 126.127C10.1676 126.583 10.2188 127.052 10.3934 127.481C10.568 127.91 10.859 128.282 11.2336 128.554C11.6082 128.826 12.0515 128.989 12.5134 129.022C12.9752 129.056 13.4374 128.96 13.8475 128.745L22.3681 124.269L30.8887 128.74C31.2986 128.955 31.7605 129.052 32.2222 129.018C32.684 128.985 33.1272 128.823 33.502 128.551C33.8779 128.279 34.1703 127.908 34.3459 127.478C34.5215 127.049 34.5734 126.579 34.4956 126.122L32.866 116.642L39.757 109.92C40.0848 109.596 40.316 109.187 40.4246 108.739C40.5331 108.291 40.5148 107.821 40.3717 107.383C40.2286 106.945 39.9664 106.555 39.6143 106.257C39.2623 105.959 38.8343 105.766 38.3783 105.697L38.3808 105.685Z" fill="#ED1E7A"/>
<path d="M84.4713 91.801C84.0891 91.8014 83.7119 91.7137 83.3692 91.5446C83.0264 91.3755 82.7273 91.1296 82.4951 90.826C82.2629 90.5224 82.1039 90.1694 82.0304 89.7943C81.957 89.4192 81.9711 89.0323 82.0716 88.6635C83.9141 80.7006 88.2936 73.5519 94.5507 68.2934C100.808 63.035 108.604 59.9515 116.765 59.5073C117.424 59.5073 118.056 59.769 118.521 60.2349C118.987 60.7007 119.249 61.3326 119.249 61.9914C119.249 62.6502 118.987 63.2821 118.521 63.748C118.056 64.2138 117.424 64.4755 116.765 64.4755C115.826 64.4755 93.7023 64.8829 86.861 89.9702C86.718 90.4948 86.4067 90.9581 85.975 91.2888C85.5434 91.6195 85.0151 91.7995 84.4713 91.801Z" fill="#F7F7F7"/>
<path d="M64.5981 91.801C64.0886 91.8006 63.5916 91.6436 63.1743 91.3512C62.7571 91.0588 62.4398 90.6452 62.2655 90.1664C53.0817 64.9152 33.1391 64.4755 32.3044 64.4755C31.6456 64.4755 31.0138 64.2138 30.5479 63.748C30.082 63.2821 29.8203 62.6502 29.8203 61.9914C29.8203 61.3326 30.082 60.7007 30.5479 60.2349C31.0138 59.769 31.6456 59.5073 32.3044 59.5073C33.2981 59.5073 56.5222 59.8377 66.9307 88.4673C67.0673 88.8424 67.1114 89.2449 67.0593 89.6407C67.0073 90.0365 66.8606 90.4139 66.6318 90.741C66.4029 91.0681 66.0986 91.3352 65.7446 91.5197C65.3906 91.7042 64.9973 91.8007 64.5981 91.801Z" fill="#F7F7F7"/>
<path d="M112.629 94.459C108.24 93.0815 103.604 92.6796 99.0433 93.2815C89.8073 94.5236 79.2398 100.314 74.5348 118.677C69.8299 100.314 59.2624 94.5335 50.0264 93.2914C45.4662 92.6869 40.8289 93.0888 36.4407 94.4689C35.8197 94.6896 35.3119 95.148 35.0289 95.7431C34.7459 96.3383 34.7109 97.0215 34.9316 97.6424C35.1523 98.2634 35.6106 98.7712 36.2058 99.0542C36.8009 99.3372 37.4841 99.3722 38.1051 99.1515C41.7459 98.0334 45.5851 97.714 49.3607 98.215C64.2058 100.215 72.0507 115.192 72.0507 141.516C72.0507 142.175 72.3124 142.807 72.7783 143.272C73.2442 143.738 73.876 144 74.5348 144C75.1937 144 75.8255 143.738 76.2914 143.272C76.7572 142.807 77.019 142.175 77.019 141.516C77.019 115.184 84.8638 100.215 99.709 98.2051C103.486 97.7143 107.325 98.0335 110.97 99.1416C111.588 99.3527 112.265 99.3114 112.854 99.0266C113.442 98.7418 113.895 98.2365 114.113 97.6203C114.332 97.0041 114.298 96.3266 114.02 95.7348C113.743 95.143 113.243 94.6846 112.629 94.459Z" fill="#F7F7F7"/>
<path d="M74.5347 101.738C73.8758 101.738 73.244 101.476 72.7781 101.01C72.3123 100.544 72.0505 99.9122 72.0505 99.2534V44.6025C72.0505 43.9437 72.3123 43.3118 72.7781 42.846C73.244 42.3801 73.8758 42.1184 74.5347 42.1184C75.1935 42.1184 75.8254 42.3801 76.2912 42.846C76.7571 43.3118 77.0188 43.9437 77.0188 44.6025V99.2534C77.0188 99.9122 76.7571 100.544 76.2912 101.01C75.8254 101.476 75.1935 101.738 74.5347 101.738Z" fill="#F7F7F7"/>
</svg>
