<svg width="151" height="150" viewBox="0 0 151 150" fill="none" xmlns="http://www.w3.org/2000/svg">
<path fill-rule="evenodd" clip-rule="evenodd" d="M16.125 25H38V31.25H22.375V140.625H128.625V31.25H113V25H134.875V146.875H16.125V25Z" fill="#ED1E7A"/>
<path fill-rule="evenodd" clip-rule="evenodd" d="M101.794 75L69.25 107.544L49.2056 87.5L53.625 83.0806L69.25 98.7056L97.375 70.5806L101.794 75Z" fill="#F7F7F7"/>
<path fill-rule="evenodd" clip-rule="evenodd" d="M57.0093 18.75C58.4974 9.88304 66.2107 3.125 75.5 3.125C84.7893 3.125 92.5026 9.88304 93.9907 18.75H106.75V43.75H44.25V18.75H57.0093ZM75.5 9.375C68.5978 9.375 63 14.9728 63 21.875V25H50.5V37.5H100.5V25H88V21.875C88 14.9728 82.4022 9.375 75.5 9.375Z" fill="#ED1E7A"/>
</svg>
