<svg width="136" height="136" viewBox="0 0 136 136" fill="none" xmlns="http://www.w3.org/2000/svg">
<g clip-path="url(#clip0_1932_90)">
<path d="M86.889 98.2222C86.889 99.2241 86.491 100.185 85.7825 100.894C85.074 101.602 84.1131 102 83.1112 102H30.2223C29.3912 102 28.5979 102.756 27.9179 103.247L15.1112 113.333V52.8889C15.1112 51.8869 15.5092 50.9261 16.2177 50.2176C16.9262 49.5091 17.8871 49.1111 18.889 49.1111H33.4712V41.5555H18.889C15.8832 41.5555 13.0005 42.7496 10.8751 44.875C8.74971 47.0004 7.55566 49.8831 7.55566 52.8889V120.889C7.56129 121.59 7.76218 122.277 8.13584 122.87C8.5095 123.464 9.04115 123.942 9.67122 124.251C10.2782 124.527 10.9475 124.638 11.611 124.571C12.2745 124.505 12.9087 124.264 13.449 123.873L32.9046 109.556H83.6779C85.1097 109.598 86.5349 109.346 87.8654 108.815C89.1958 108.284 90.4031 107.486 91.4124 106.469C92.4217 105.453 93.2116 104.24 93.7332 102.906C94.2548 101.572 94.4969 100.145 94.4446 98.7133V94.4444H86.889V98.2222Z" fill="white"/>
<path d="M117.111 15.1111H52.889C49.8832 15.1111 47.0005 16.3051 44.8751 18.4305C42.7497 20.556 41.5557 23.4386 41.5557 26.4444V71.7777C41.5557 74.7835 42.7497 77.6662 44.8751 79.7916C47.0005 81.917 49.8832 83.1111 52.889 83.1111H104.078L122.136 97.1266C122.672 97.5235 123.305 97.7711 123.968 97.8441C124.632 97.9171 125.303 97.8129 125.913 97.5422C126.556 97.236 127.1 96.7544 127.481 96.1528C127.862 95.5512 128.065 94.8542 128.067 94.1422V26.4444C128.068 23.503 126.926 20.6761 124.882 18.5612C122.838 16.4463 120.051 15.2091 117.111 15.1111ZM120.889 86.6622L107.667 76.3489C107.007 75.8371 106.197 75.5581 105.362 75.5555H52.889C51.8871 75.5555 50.9262 75.1575 50.2177 74.449C49.5092 73.7406 49.1112 72.7797 49.1112 71.7777V26.4444C49.1112 25.4425 49.5092 24.4816 50.2177 23.7731C50.9262 23.0647 51.8871 22.6666 52.889 22.6666H117.111C118.121 22.7583 119.063 23.216 119.758 23.9536C120.454 24.6911 120.856 25.6576 120.889 26.6711V86.6622Z" fill="#ED1E7A"/>
</g>
<defs>
<clipPath id="clip0_1932_90">
<rect width="136" height="136" fill="white"/>
</clipPath>
</defs>
</svg>
