<svg width="151" height="150" viewBox="0 0 151 150" fill="none" xmlns="http://www.w3.org/2000/svg">
<g clip-path="url(#clip0_1686_75)">
<path fill-rule="evenodd" clip-rule="evenodd" d="M69.7152 18.75C38.792 18.75 13.4652 44.0768 13.4652 75C13.4652 105.923 38.792 131.25 69.7152 131.25C100.638 131.25 125.965 105.923 125.965 75C125.965 69.8104 125.386 64.7017 124.277 60.2658L136.404 57.2341C137.795 62.7982 138.465 68.9396 138.465 75C138.465 112.827 107.542 143.75 69.7152 143.75C31.8884 143.75 0.96521 112.827 0.96521 75C0.96521 37.1732 31.8884 6.25 69.7152 6.25C82.7203 6.25 95.1249 9.68266 106.153 16.575L99.5277 27.175C90.5555 21.5673 80.4601 18.75 69.7152 18.75Z" fill="#F7F7F7"/>
<path fill-rule="evenodd" clip-rule="evenodd" d="M147.304 18.75L69.7152 96.3388L35.8763 62.5L44.7152 53.6612L69.7152 78.6612L138.465 9.91116L147.304 18.75Z" fill="#ED1E7A"/>
</g>
<defs>
<clipPath id="clip0_1686_75">
<rect width="150" height="150" fill="white" transform="translate(0.96521)"/>
</clipPath>
</defs>
</svg>
